<svg width="20" height="21" viewBox="0 0 20 21" fill="none" xmlns="http://www.w3.org/2000/svg">
<path fill-rule="evenodd" clip-rule="evenodd" d="M10.8337 2.99984C10.8337 2.5396 10.4606 2.1665 10.0004 2.1665C9.54014 2.1665 9.16704 2.5396 9.16704 2.99984V3.47556C6.34027 3.87978 4.16704 6.31003 4.16704 9.24892L4.16704 12.5826C4.16704 12.5826 4.16705 12.5825 4.16704 12.5826C4.16696 12.5842 4.16639 12.5954 4.16278 12.6172C4.15844 12.6435 4.15074 12.6792 4.13803 12.7251C4.11225 12.8181 4.07124 12.934 4.01393 13.0711C3.89905 13.3458 3.73708 13.662 3.55795 13.9811C3.22116 14.5811 3.0514 15.296 3.17885 15.9759C3.31325 16.6928 3.77474 17.3181 4.56293 17.6182C5.26701 17.8863 6.20423 18.1314 7.44193 18.2774C7.47137 18.3029 7.5062 18.3321 7.5462 18.3641C7.67144 18.4643 7.85037 18.5942 8.07651 18.7234C8.52531 18.9798 9.18889 19.2498 10.0004 19.2498C10.8119 19.2498 11.4754 18.9798 11.9242 18.7234C12.1504 18.5942 12.3293 18.4643 12.4545 18.3641C12.4945 18.3321 12.5294 18.3029 12.5588 18.2774C13.7965 18.1314 14.7337 17.8863 15.4378 17.6182C16.226 17.3181 16.6875 16.6928 16.8219 15.9759C16.9493 15.296 16.7796 14.5811 16.4428 13.9811C16.2637 13.662 16.1017 13.3458 15.9868 13.0711C15.9295 12.934 15.8885 12.8181 15.8627 12.7251C15.85 12.6792 15.8423 12.6435 15.838 12.6172C15.8344 12.5953 15.8338 12.5844 15.8337 12.5828C15.8337 12.5827 15.8337 12.5828 15.8337 12.5828L15.8337 12.5758V9.24932C15.8337 6.3105 13.6605 3.87985 10.8337 3.47557V2.99984ZM5.83371 9.24892C5.83371 6.94794 7.69899 5.08317 10.0004 5.08317C12.3017 5.08317 14.167 6.94825 14.167 9.24932V12.5832C14.167 12.969 14.3116 13.3851 14.4492 13.7141C14.5987 14.0716 14.7946 14.4499 14.9895 14.797C15.1789 15.1345 15.2241 15.4535 15.1838 15.6688C15.1504 15.847 15.0613 15.9782 14.8448 16.0606C13.949 16.4017 12.437 16.7498 10.0004 16.7498C7.56377 16.7498 6.05171 16.4017 5.156 16.0606C4.93945 15.9782 4.85038 15.847 4.81698 15.6688C4.77662 15.4535 4.8218 15.1345 5.01128 14.797C5.20615 14.4499 5.40206 14.0716 5.55156 13.7141C5.68916 13.3851 5.83371 12.969 5.83371 12.5832V9.24892Z" fill="#344054"/>
</svg>
