<svg width="24" height="24" viewBox="0 0 24 24" fill="none" xmlns="http://www.w3.org/2000/svg">
<path d="M18.5157 19.1719V19.1717C18.5209 17.8209 18.1473 16.4957 17.4374 15.3464C16.7274 14.1972 15.7095 13.27 14.4992 12.6701L14.4991 12.6701L9.96173 10.4014C8.92416 9.88689 8.05141 9.09211 7.44235 8.10707C6.83331 7.12205 6.5123 5.98616 6.51568 4.82807M18.5157 19.1719L6.56255 4.82812M18.5157 19.1719V21.75C18.5157 21.8868 18.4614 22.0179 18.3647 22.1146C18.268 22.2113 18.1368 22.2656 18.0001 22.2656C17.8633 22.2656 17.7322 22.2113 17.6355 22.1146C17.5388 22.0179 17.4844 21.8868 17.4844 21.75V19.172M18.5157 19.1719L14.0176 13.6406M6.51568 4.82807C6.51568 4.82804 6.51568 4.82801 6.51568 4.82799L6.56255 4.82812M6.51568 4.82807V4.82812H6.56255M6.51568 4.82807V2.25C6.51568 2.11325 6.46135 1.9821 6.36466 1.8854C6.26796 1.7887 6.13681 1.73438 6.00005 1.73438C5.8633 1.73438 5.73215 1.7887 5.63545 1.8854C5.53875 1.9821 5.48443 2.11325 5.48443 2.25V4.82812V4.82831C5.47922 6.17912 5.85278 7.50435 6.56273 8.65356C7.27268 9.80278 8.29057 10.73 9.50087 11.3299L9.50102 11.3299L14.0384 13.5986M6.56255 4.82812V2.25C6.56255 2.10082 6.50329 1.95774 6.3978 1.85225C6.29231 1.74676 6.14924 1.6875 6.00005 1.6875C5.85087 1.6875 5.7078 1.74676 5.60231 1.85225C5.49682 1.95774 5.43755 2.10082 5.43755 2.25V4.82812C5.43231 6.1877 5.8083 7.52153 6.52285 8.6782C7.2374 9.83487 8.2619 10.7681 9.48005 11.3719L14.0176 13.6406M14.0384 13.5986L14.0176 13.6406M14.0384 13.5986L14.0385 13.5987L14.0176 13.6406M14.0384 13.5986C15.076 14.1131 15.9487 14.9079 16.5578 15.8929C17.1668 16.878 17.4878 18.0139 17.4844 19.172M17.4844 19.172L17.4376 19.1719H17.4844V19.172ZM6.51846 18.9844L6.5204 18.9356C6.54618 18.2904 6.67206 17.653 6.89352 17.0464L6.90477 17.0156H6.93755H13.8872C14.024 17.0156 14.1551 16.9613 14.2518 16.8646C14.3485 16.7679 14.4029 16.6368 14.4029 16.5C14.4029 16.3632 14.3485 16.2321 14.2518 16.1354C14.1551 16.0387 14.024 15.9844 13.8872 15.9844H7.47849H7.3949L7.4385 15.9131C7.85916 15.2249 8.40953 14.6251 9.05901 14.147M6.51846 18.9844L9.08724 14.1844M6.51846 18.9844H6.56724H15.0001C15.1368 18.9844 15.268 19.0387 15.3647 19.1354C15.4614 19.2321 15.5157 19.3632 15.5157 19.5C15.5157 19.6368 15.4614 19.7679 15.3647 19.8646C15.268 19.9613 15.1368 20.0156 15.0001 20.0156H6.56255H6.51568V20.0625V21.75C6.51568 21.8868 6.46135 22.0179 6.36466 22.1146C6.26796 22.2113 6.13681 22.2656 6.00005 22.2656C5.8633 22.2656 5.73215 22.2113 5.63545 22.1146C5.53875 22.0179 5.48443 21.8868 5.48443 21.75V19.1719C5.48639 18.0319 5.75564 16.9083 6.27057 15.8912C6.78541 14.8743 7.53149 13.9923 8.44892 13.3159M6.51846 18.9844L8.42162 13.2778M9.05901 14.147C9.05916 14.1468 9.05931 14.1467 9.05945 14.1466L9.08724 14.1844M9.05901 14.147C9.05888 14.1471 9.05874 14.1472 9.05861 14.1473L9.08724 14.1844M9.05901 14.147C9.16539 14.0647 9.23544 13.9442 9.25423 13.811C9.27305 13.6777 9.23897 13.5424 9.15929 13.4338C9.07961 13.3253 8.96065 13.2523 8.82782 13.2303C8.69518 13.2083 8.55922 13.2391 8.44892 13.3159M9.08724 14.1844C9.20353 14.0947 9.28013 13.963 9.30065 13.8176C9.32117 13.6722 9.284 13.5245 9.19708 13.4061C9.11015 13.2877 8.98037 13.208 8.83547 13.184C8.69057 13.1601 8.54203 13.1937 8.42162 13.2778M8.44892 13.3159C8.44909 13.3158 8.44926 13.3157 8.44943 13.3155L8.42162 13.2778M8.44892 13.3159C8.44876 13.316 8.44861 13.3161 8.44845 13.3162L8.42162 13.2778M7.47849 15.9375V15.8906H7.50743C7.49772 15.9062 7.48807 15.9218 7.47849 15.9375ZM7.47849 15.9375L7.51849 15.9619C7.52347 15.9538 7.52848 15.9456 7.53351 15.9375H7.47849ZM17.4376 3.98438H17.4844V3.9375V2.25C17.4844 2.11325 17.5388 1.9821 17.6355 1.8854C17.7322 1.7887 17.8633 1.73438 18.0001 1.73438C18.1368 1.73438 18.268 1.7887 18.3647 1.8854C18.4614 1.9821 18.5157 2.11325 18.5157 2.25V4.82804C18.5137 5.96805 18.2445 7.09172 17.7295 8.1088C17.2147 9.1257 16.4686 10.0077 15.5512 10.6841C15.4409 10.7609 15.3049 10.7917 15.1723 10.7697C15.0395 10.7477 14.9205 10.6747 14.8408 10.5662C14.7611 10.4576 14.7271 10.3223 14.7459 10.189C14.7647 10.0558 14.8347 9.93528 14.9411 9.85305C15.5906 9.37489 16.1409 8.77507 16.5616 8.08695L16.6052 8.01562H16.5216H10.1147C9.97799 8.01562 9.84684 7.9613 9.75014 7.8646C9.65344 7.7679 9.59912 7.63675 9.59912 7.5C9.59912 7.36325 9.65344 7.2321 9.75014 7.1354C9.84684 7.0387 9.97799 6.98438 10.1147 6.98438H17.0626H17.0953L17.1065 6.95368C17.3296 6.34733 17.4571 5.70999 17.4844 5.06448L17.4865 5.01562H17.4376H9.00005C8.8633 5.01562 8.73215 4.9613 8.63545 4.8646C8.53875 4.7679 8.48443 4.63675 8.48443 4.5C8.48443 4.36325 8.53875 4.2321 8.63545 4.1354C8.73215 4.0387 8.8633 3.98438 9.00005 3.98438H17.4376Z" fill="#12BA4B" stroke="#12BA4B" stroke-width="0.09375"/>
</svg>
