<svg width="126" height="33" viewBox="0 0 126 33" fill="none" xmlns="http://www.w3.org/2000/svg">
<path d="M21.951 0.540527H11.2841C5.39312 0.540527 0.617554 5.304 0.617554 11.18V21.82C0.617554 27.696 5.39312 32.4595 11.2841 32.4595H21.951C27.842 32.4595 32.6176 27.696 32.6176 21.82V11.18C32.6176 5.304 27.842 0.540527 21.951 0.540527Z" fill="#0066FF"/>
<path fill-rule="evenodd" clip-rule="evenodd" d="M5.95056 19.7891L5.95589 20.7963L6.0376 20.9319C6.05004 20.9487 6.06602 20.9766 6.08068 20.9939C8.33042 21.2632 12.9076 21.7182 14.8936 23.0816C17.9165 24.2754 17.8796 22.9208 20.5894 22.1274L23.4542 21.467C24.4907 21.2446 26.2245 21.3775 27.0749 21.1352C27.2254 20.7162 27.2729 20.1572 27.245 19.6088L27.284 19.5693C26.6597 19.2185 25.2328 19.3567 24.3557 19.4768C22.5261 19.727 21.3755 20.0482 19.6355 20.4756L18.7043 20.8561C18.2922 21.0564 17.1837 21.6114 16.7974 21.719C16.391 21.7208 16.1943 21.7452 15.9398 21.4754L13.8264 20.5363C12.8175 20.1532 10.4043 19.6429 9.19906 19.5126L6.91956 19.393C6.29206 19.3904 6.098 19.2872 5.95145 19.7886L5.95056 19.7891Z" fill="white"/>
<path fill-rule="evenodd" clip-rule="evenodd" d="M7.12825 18.5748C9.68708 18.5713 13.6799 19.3762 15.831 20.5797C16.2152 20.7945 16.2849 20.9199 16.7911 20.9017C17.1451 20.5257 18.2295 20.1367 18.7993 19.9914C19.7408 19.4364 22.6939 18.9372 23.7335 18.748C24.4858 18.6727 25.3585 18.6528 26.1059 18.5571L25.9229 17.991C23.3552 16.7357 18.9783 18.2546 16.6095 19.3943L16.1574 19.1405C13.6119 17.8404 12.3458 17.7877 9.50012 17.4546C8.53201 17.4493 8.14033 17.4679 7.92628 17.5295C7.37028 17.6894 7.23306 18.0987 7.12781 18.5753L7.12825 18.5748Z" fill="white"/>
<path d="M22.3937 11.2399L16.9714 9.47427C16.7914 9.41567 16.4048 9.45213 16.1079 9.55571L11.053 11.3192C10.7561 11.4228 10.6613 11.5543 10.8413 11.6129L16.2636 13.3786C16.4436 13.4372 16.8301 13.4007 17.127 13.2971L22.182 11.5336C22.4788 11.43 22.5736 11.2985 22.3937 11.2399Z" fill="white"/>
<path fill-rule="evenodd" clip-rule="evenodd" d="M20.5735 12.959V16.0588C20.5735 16.2484 20.4136 16.3627 20.228 16.4035L16.4621 17.2305L13.0071 16.4035C12.8224 16.3592 12.6616 16.2484 12.6616 16.0588V13.0697L16.2609 14.2418C16.4417 14.3007 16.8312 14.2644 17.1269 14.1612L20.5735 12.959Z" fill="white"/>
<path d="M45.5822 21.1042C44.6784 21.1042 43.8571 20.9553 43.1184 20.6565C42.3796 20.3583 41.7873 19.9072 41.3414 19.3045C40.8955 18.7012 40.6545 17.937 40.6176 17.0111H43.6588C43.7078 17.4377 43.8816 17.8212 44.1811 18.1626C44.4801 18.5034 44.9352 18.6744 45.5457 18.6744C46.0708 18.6744 46.4649 18.5585 46.7275 18.3273C46.9901 18.096 47.1211 17.791 47.1211 17.4137C47.1211 17.2433 47.0937 17.0848 47.0385 16.9388C46.9833 16.7923 46.8768 16.6496 46.7179 16.5093C46.559 16.369 46.318 16.2263 45.9945 16.0798C45.671 15.9338 45.2404 15.7753 44.7028 15.6049C43.7011 15.2879 42.9196 14.9164 42.358 14.4903C41.7964 14.0637 41.4024 13.6074 41.1763 13.12C40.9507 12.6326 40.8374 12.1332 40.8374 11.6214C40.8494 10.7931 41.0572 10.1017 41.4604 9.54729C41.8636 8.99333 42.4008 8.57583 43.0728 8.29574C43.7443 8.01565 44.4955 7.87537 45.3259 7.87537C46.1563 7.87537 46.9166 8.01852 47.6069 8.30484C48.2966 8.59115 48.8558 9.0144 49.283 9.57505C49.7107 10.1352 49.9301 10.83 49.9425 11.6583H46.8283C46.8158 11.3293 46.6757 11.0186 46.4069 10.7265C46.138 10.434 45.7411 10.288 45.216 10.288C44.8372 10.2999 44.5166 10.4067 44.254 10.6078C43.9915 10.8089 43.8604 11.0918 43.8604 11.4576C43.8604 11.7741 43.9948 12.0485 44.2636 12.2797C44.5324 12.511 44.914 12.7245 45.4084 12.9194C45.9028 13.1142 46.4803 13.3216 47.1398 13.5408C47.6405 13.7113 48.083 13.9095 48.468 14.135C48.8529 14.3605 49.1731 14.6224 49.4299 14.9207C49.6862 15.2195 49.8816 15.5575 50.016 15.9352C50.1504 16.313 50.2176 16.7391 50.2176 17.2146C50.2176 17.994 50.0193 18.6763 49.6219 19.2609C49.2249 19.8455 48.6787 20.2994 47.9822 20.6221C47.2862 20.9448 46.486 21.1061 45.5822 21.1061V21.1042Z" fill="#101928"/>
<path d="M56.0611 20.8849C54.9863 20.8849 54.1771 20.623 53.6337 20.0992C53.0903 19.5754 52.8187 18.7716 52.8187 17.6871V14.1422H51.8658V11.8215H52.8187V9.5741H55.6401V11.8215H57.4905V14.1422H55.6401V17.724C55.6401 18.0285 55.7039 18.2325 55.8326 18.3364C55.9607 18.4398 56.1777 18.4915 56.483 18.4915H57.4905V20.8854H56.0615L56.0611 20.8849Z" fill="#101928"/>
<path d="M62.6194 21.1042C61.862 21.1042 61.224 20.9367 60.7047 20.6015C60.1858 20.2664 59.7946 19.8034 59.532 19.213C59.2695 18.6222 59.1384 17.949 59.1384 17.194V11.8215H61.9412V16.8469C61.9412 17.407 62.0818 17.8638 62.3626 18.2171C62.6434 18.5705 63.0648 18.7472 63.6264 18.7472C64.188 18.7472 64.6095 18.5705 64.8903 18.2171C65.1711 17.8638 65.3117 17.407 65.3117 16.8469V11.8215H68.1332V20.8849H65.3117V19.7521C64.9944 20.2027 64.6032 20.5407 64.1391 20.7662C63.6749 20.9912 63.168 21.1042 62.6184 21.1042H62.6194Z" fill="#101928"/>
<path d="M73.8678 21.1042C73.0129 21.1042 72.2799 20.885 71.6694 20.4464C71.0588 20.0078 70.5918 19.4261 70.2678 18.7012C69.9442 17.9763 69.7825 17.1878 69.7825 16.3346C69.7825 15.4819 69.9476 14.6962 70.2774 13.9775C70.6071 13.2589 71.0775 12.6829 71.6881 12.2505C72.2986 11.8182 73.0254 11.6018 73.8682 11.6018C74.4423 11.6018 74.9857 11.7205 75.4988 11.958C76.0119 12.1955 76.4209 12.546 76.7262 13.0085V8.09277H79.5659V20.884H76.7262V19.6416C76.4209 20.1409 76.0177 20.5096 75.517 20.7471C75.0164 20.9846 74.4668 21.1033 73.8682 21.1033L73.8678 21.1042ZM74.6924 18.6375C75.0711 18.6375 75.4129 18.5461 75.7182 18.3637C76.0234 18.1813 76.2678 17.916 76.4511 17.5689C76.634 17.2218 76.7257 16.8167 76.7257 16.3537C76.7257 15.9032 76.6403 15.5072 76.4694 15.1659C76.2985 14.825 76.0604 14.5569 75.7546 14.362C75.4494 14.1671 75.0951 14.0695 74.6924 14.0695C74.3871 14.0695 74.0785 14.1422 73.767 14.2887C73.4554 14.4348 73.1962 14.6756 72.9884 15.0103C72.7806 15.3454 72.6769 15.7869 72.6769 16.3351C72.6769 16.7617 72.7594 17.148 72.9241 17.4956C73.0887 17.8428 73.321 18.12 73.6201 18.3273C73.9196 18.5346 74.2767 18.638 74.6919 18.638L74.6924 18.6375Z" fill="#101928"/>
<path d="M82.9541 24.9048L84.9144 20.5742L81.2136 11.8215H84.3284L86.4351 17.486L88.5236 11.8215H91.5279L85.9584 24.9048H82.9541Z" fill="#101928"/>
<path d="M93.1763 20.885V8.09375H96.0707V12.8811H101.219V8.09375H104.095V20.885H101.219V15.3665H96.0707V20.885H93.1763Z" fill="#101928"/>
<path d="M109.225 21.1042C108.467 21.1042 107.829 20.9367 107.31 20.6015C106.791 20.2664 106.4 19.8034 106.137 19.213C105.875 18.6222 105.744 17.949 105.744 17.194V11.8215H108.546V16.8469C108.546 17.407 108.687 17.8638 108.968 18.2171C109.249 18.5705 109.67 18.7472 110.232 18.7472C110.793 18.7472 111.215 18.5705 111.496 18.2171C111.776 17.8638 111.917 17.407 111.917 16.8469V11.8215H114.738V20.8849H111.917V19.7521C111.6 20.2027 111.208 20.5407 110.744 20.7662C110.28 20.9912 109.773 21.1042 109.224 21.1042H109.225Z" fill="#101928"/>
<path d="M120.766 25.1245C119.935 25.1245 119.19 25.0331 118.531 24.8502C117.871 24.6678 117.35 24.3723 116.965 23.9639C116.58 23.556 116.388 23.0226 116.388 22.3648C116.388 21.9382 116.479 21.57 116.662 21.2593C116.846 20.9485 117.126 20.6776 117.505 20.4463C117.187 20.2639 116.949 20.0321 116.79 19.7521C116.632 19.472 116.552 19.1493 116.552 18.7835C116.552 17.9791 116.919 17.3701 117.652 16.956C117.383 16.6759 117.181 16.3623 117.047 16.0151C116.913 15.668 116.846 15.2936 116.846 14.8914C116.846 14.2211 117.007 13.6394 117.331 13.1463C117.654 12.6531 118.103 12.272 118.677 12.0044C119.251 11.7362 119.905 11.6022 120.638 11.6022C121.187 11.6022 121.682 11.6754 122.121 11.8215H125.382V13.7036H124.228C124.289 13.874 124.341 14.0598 124.384 14.2609C124.426 14.462 124.448 14.6721 124.448 14.8914C124.448 15.5493 124.28 16.1248 123.944 16.6184C123.608 17.1116 123.153 17.4955 122.579 17.7694C122.005 18.0438 121.358 18.1807 120.637 18.1807C120.368 18.1807 120.115 18.1591 119.877 18.1165C119.639 18.0739 119.41 18.0102 119.19 17.9245C118.983 18.0222 118.878 18.1807 118.878 18.4C118.878 18.7897 119.196 18.9846 119.831 18.9846H121.7C122.433 18.9846 123.068 19.088 123.605 19.2953C124.143 19.5026 124.558 19.8191 124.851 20.2457C125.144 20.6723 125.29 21.2262 125.29 21.9085C125.29 22.6391 125.08 23.2424 124.658 23.7174C124.237 24.1928 123.681 24.5457 122.991 24.7774C122.301 25.0086 121.559 25.1245 120.765 25.1245H120.766ZM120.839 23.0595C121.34 23.0595 121.773 22.9805 122.14 22.822C122.506 22.6636 122.69 22.4141 122.69 22.0727C122.69 21.4513 122.262 21.141 121.407 21.141H120.271C119.856 21.141 119.538 21.2171 119.319 21.3694C119.099 21.5217 118.989 21.7563 118.989 22.0727C118.989 22.3164 119.074 22.5113 119.245 22.6573C119.416 22.8038 119.642 22.9073 119.923 22.9681C120.204 23.0293 120.509 23.0595 120.839 23.0595H120.839ZM120.638 16.1339C121.041 16.1339 121.37 16.018 121.627 15.7868C121.883 15.5555 122.011 15.2567 122.011 14.8914C122.011 14.5381 121.883 14.2427 121.627 14.0052C121.37 13.7677 121.041 13.649 120.638 13.649C120.222 13.649 119.893 13.7677 119.648 14.0052C119.404 14.2427 119.282 14.5381 119.282 14.8914C119.282 15.2567 119.404 15.5555 119.648 15.7868C119.893 16.018 120.222 16.1339 120.638 16.1339Z" fill="#101928"/>
</svg>
