<svg width="150" height="152" viewBox="0 0 150 152" fill="none" xmlns="http://www.w3.org/2000/svg">
<path d="M121.913 109.465L113.857 113.5L112.098 114.379L102.31 119.965L96.5423 123.25L92.6889 116.59C91.5768 114.806 90.2707 113.461 88.7578 112.594C87.2449 111.715 85.939 111.547 84.8398 112.064L97.163 105.896L110.702 99.1332C111.801 98.6159 113.107 98.7841 114.62 99.6635C116.133 100.53 117.439 101.875 118.551 103.659L121.913 109.465Z" stroke="url(#paint0_linear_145_7614)" stroke-width="1.2931"/>
<path d="M147.323 111.353C147.323 113.086 146.819 114.301 145.81 114.974L126.258 125.965L125.573 126.301L100.396 138.895L119.948 127.905C120.814 127.323 121.306 126.353 121.422 124.982C121.448 124.762 121.461 124.529 121.461 124.284C121.461 122.538 120.956 120.754 119.948 118.905C118.849 117.107 117.53 115.775 116.017 114.896C115.396 114.534 114.814 114.301 114.258 114.185C113.469 114.004 112.745 114.068 112.099 114.379L113.857 113.499L121.913 109.465L137.961 101.448C139.06 100.918 140.366 101.098 141.879 101.965C143.392 102.844 144.711 104.176 145.81 105.974C146.819 107.823 147.323 109.607 147.323 111.353Z" stroke="url(#paint1_linear_145_7614)" stroke-width="1.2931"/>
<path d="M121.46 124.284C121.46 124.53 121.447 124.762 121.421 124.982C121.305 126.353 120.813 127.323 119.947 127.905L100.395 138.897C99.3865 139.582 98.0936 139.466 96.5418 138.573C94.9772 137.668 93.697 136.296 92.6884 134.447L92.3651 133.892L91.9384 133.18L84.8393 121.064C83.7272 119.163 83.1841 117.353 83.1841 115.607C83.1841 113.861 83.7272 112.698 84.8393 112.064C85.9384 111.547 87.2443 111.715 88.7572 112.594C90.2702 113.461 91.5763 114.805 92.6884 116.59L96.5418 123.249L102.309 119.965L112.098 114.379C112.744 114.069 113.469 114.004 114.257 114.185C114.813 114.301 115.395 114.534 116.016 114.896C117.529 115.775 118.848 117.107 119.947 118.905C120.956 120.754 121.46 122.538 121.46 124.284Z" stroke="url(#paint2_linear_145_7614)" stroke-width="1.2931"/>
<path d="M91.9394 133.181L92.3662 133.892L80.4308 139.853C76.9394 134.578 74.2369 128.771 72.3101 122.448C71.4308 119.577 70.7584 116.836 70.2929 114.224C69.6981 111.081 69.4136 108.133 69.4136 105.379C69.4136 94.5296 72.6721 87.3787 79.1893 83.9261C84.4522 81.133 90.1291 80.9392 96.2325 83.3444C95.5989 86.0082 95.2756 89.0468 95.2756 92.4477C95.2756 96.508 95.9091 100.995 97.1634 105.896L84.8403 112.064C83.7282 112.698 83.1851 113.874 83.1851 115.607C83.1851 117.34 83.7282 119.163 84.8403 121.064L91.9394 133.181Z" stroke="url(#paint3_linear_145_7614)" stroke-width="1.2931"/>
<path d="M112.641 94.3096C110.805 92.4088 108.878 90.7665 106.861 89.3959C104.844 88.0122 102.775 86.719 100.667 85.5035C99.1672 84.6371 97.68 83.9131 96.2317 83.3441C90.1282 80.939 84.4515 81.1329 79.1886 83.926C72.6714 87.3786 69.4127 94.5293 69.4127 105.378C69.4127 108.133 69.6973 111.081 70.2922 114.223C70.7577 116.836 71.43 119.577 72.3093 122.448C74.236 128.771 76.9386 134.576 80.43 139.852C78.6843 140.641 76.4084 141.611 73.6153 142.787C70.8093 143.964 68.4042 145.025 66.387 145.968L61.9774 148C60.9688 148.478 59.7534 148.296 58.331 147.481C56.9086 146.654 55.6929 145.427 54.6843 143.784L40.9127 121.465C34.305 110.797 28.6412 101.422 23.9084 93.314C19.1886 85.2191 15.2834 77.913 12.2059 71.3957C9.12829 64.8785 6.87833 58.995 5.45591 53.7579C4.0335 48.5079 3.32227 43.4647 3.32227 38.6156C3.32227 28.7233 6.21877 22.1414 11.9989 18.9087C12.4257 18.663 12.8653 18.4431 13.3179 18.2492C17.9214 16.2319 23.3653 16.6329 29.6369 19.4648C30.93 20.0338 32.2489 20.719 33.6196 21.5078C38.3912 24.2621 42.93 28.025 47.2489 32.7707C51.5679 37.5293 55.2791 42.9216 58.3955 48.9345C59.236 48.288 60.1154 47.7321 61.0465 47.2795L61.2275 47.1888C63.6973 45.9992 66.4774 45.495 69.555 45.6502C73.861 45.8829 78.4127 47.37 83.1843 50.1243C90.9817 54.6243 97.5248 61.1157 102.801 69.5855C103.214 70.2579 103.615 70.9173 104.016 71.5897C108.581 79.3612 111.465 86.939 112.641 94.3096Z" stroke="url(#paint4_linear_145_7614)" stroke-width="1.2931"/>
<path d="M138.504 81.3787L112.642 94.3097C111.465 86.939 108.581 79.3614 104.017 71.5899C103.616 70.9175 103.215 70.258 102.801 69.5856C97.5253 61.1157 90.9823 54.6244 83.1849 50.1244C78.4134 47.3701 73.8616 45.883 69.5556 45.6502C66.478 45.4951 63.6979 45.9994 61.228 47.189L84.116 35.7451L86.4951 34.5554C89.1201 33.1589 92.0815 32.5511 95.4177 32.7192C99.7237 32.952 104.275 34.439 109.047 37.1933C116.844 41.6933 123.387 48.1847 128.663 56.6545C133.94 65.1244 137.224 73.3744 138.504 81.3787Z" stroke="url(#paint5_linear_145_7614)" stroke-width="1.2931"/>
<path d="M84.1148 35.745L61.227 47.189L61.046 47.2796C60.1149 47.7322 59.2355 48.2881 58.395 48.9346C55.2786 42.9217 51.5674 37.5295 47.2484 32.7709C42.9294 28.0252 38.3907 24.2622 33.6191 21.5079C32.2484 20.7191 30.9295 20.0339 29.6363 19.465C23.3648 16.6331 17.9208 16.2321 13.3174 18.2493L37.8605 5.97778C43.6407 2.73209 50.8562 3.59848 59.4812 8.57693C64.2527 11.3312 68.7915 15.0941 73.1105 19.8398C77.3648 24.5338 81.0372 29.8355 84.1148 35.745Z" stroke="url(#paint6_linear_145_7614)" stroke-width="1.2931"/>
<defs>
<linearGradient id="paint0_linear_145_7614" x1="103.376" y1="98.8418" x2="103.376" y2="123.25" gradientUnits="userSpaceOnUse">
<stop stop-color="#0059DE"/>
<stop offset="1" stop-color="#A90000"/>
</linearGradient>
<linearGradient id="paint1_linear_145_7614" x1="123.86" y1="101.15" x2="123.86" y2="138.895" gradientUnits="userSpaceOnUse">
<stop stop-color="#0059DE"/>
<stop offset="1" stop-color="#A90000"/>
</linearGradient>
<linearGradient id="paint2_linear_145_7614" x1="102.322" y1="111.773" x2="102.322" y2="139.338" gradientUnits="userSpaceOnUse">
<stop stop-color="#0059DE"/>
<stop offset="1" stop-color="#A90000"/>
</linearGradient>
<linearGradient id="paint3_linear_145_7614" x1="83.2885" y1="81.675" x2="83.2885" y2="139.853" gradientUnits="userSpaceOnUse">
<stop stop-color="#0059DE"/>
<stop offset="1" stop-color="#A90000"/>
</linearGradient>
<linearGradient id="paint4_linear_145_7614" x1="57.9818" y1="16.988" x2="57.9818" y2="148.261" gradientUnits="userSpaceOnUse">
<stop stop-color="#0059DE"/>
<stop offset="1" stop-color="#A90000"/>
</linearGradient>
<linearGradient id="paint5_linear_145_7614" x1="99.8662" y1="32.6919" x2="99.8662" y2="94.3097" gradientUnits="userSpaceOnUse">
<stop stop-color="#0059DE"/>
<stop offset="1" stop-color="#A90000"/>
</linearGradient>
<linearGradient id="paint6_linear_145_7614" x1="48.7161" y1="4.0564" x2="48.7161" y2="48.9347" gradientUnits="userSpaceOnUse">
<stop stop-color="#0059DE"/>
<stop offset="1" stop-color="#A90000"/>
</linearGradient>
</defs>
</svg>
