<svg width="24" height="24" viewBox="0 0 24 24" fill="none" xmlns="http://www.w3.org/2000/svg">
<path d="M9.63116 8.23522L9.63115 8.23523C9.40729 8.6392 9.34571 9.12179 9.46231 9.57528C9.5788 10.0284 9.86167 10.4087 10.2416 10.6374C10.2416 10.6374 10.2417 10.6375 10.2417 10.6375L11.0729 11.1374L11.073 11.1374C11.2612 11.2506 11.4679 11.3235 11.6814 11.3528C11.8948 11.3821 12.1118 11.3673 12.3202 11.3091C12.5286 11.2509 12.7252 11.1502 12.8984 11.0117C13.0716 10.8731 13.2182 10.6994 13.3289 10.4996L13.3289 10.4995L15.0013 7.48154L15.336 6.87744L15.8054 7.38407C16.6095 8.25203 17.1488 9.34479 17.359 10.5255C17.5692 11.7061 17.4416 12.9253 16.9913 14.0321C16.5409 15.139 15.7865 16.0868 14.8192 16.7551C13.862 17.4164 12.7389 17.7745 11.5869 17.7837L11.5789 17.7849H11.542H11.5362H11.5355C9.89148 17.7826 8.5663 16.8851 7.67165 15.5409L7.15449 14.7639H8.08789H10.2354C10.287 14.7639 10.3409 14.7427 10.3838 14.6979C10.4275 14.6525 10.4554 14.5866 10.4554 14.5139C10.4554 14.4411 10.4275 14.3753 10.3838 14.3298C10.3409 14.285 10.287 14.2639 10.2354 14.2639H3.51541C3.4638 14.2639 3.40997 14.285 3.36699 14.3298C3.32334 14.3753 3.29541 14.4411 3.29541 14.5139C3.29541 14.5866 3.32334 14.6525 3.36699 14.6979C3.40997 14.7427 3.4638 14.7639 3.51541 14.7639H6.40981H6.71832L6.85669 15.0396C7.7009 16.7218 9.08504 17.9954 10.8895 18.2415L11.322 18.3004V18.7369V20.4999V20.9999H10.822H7.70197C7.65036 20.9999 7.59653 21.021 7.55355 21.0658L7.19285 20.7196L7.55355 21.0658C7.5099 21.1113 7.48197 21.1771 7.48197 21.2499C7.48197 21.3226 7.5099 21.3885 7.55355 21.4339L7.19285 21.7802L7.55355 21.4339C7.59653 21.4787 7.65036 21.4999 7.70197 21.4999H15.382C15.4336 21.4999 15.4874 21.4787 15.5304 21.4339C15.574 21.3885 15.602 21.3226 15.602 21.2499C15.602 21.1771 15.574 21.1113 15.5304 21.0658C15.4874 21.021 15.4336 20.9999 15.382 20.9999H12.262H11.762V20.4999V18.7459V18.2979L12.2072 18.2489C13.4192 18.1154 14.5708 17.6203 15.5235 16.8202C16.4763 16.0199 17.1898 14.9481 17.5755 13.7316C17.9613 12.515 18.002 11.2076 17.6926 9.96718C17.3832 8.7268 16.7375 7.60845 15.8358 6.74501L15.5573 6.47829L15.7445 6.14115L16.0275 5.63146L9.63116 8.23522ZM9.63116 8.23522L12.3296 3.36541C12.3296 3.36535 12.3297 3.36529 12.3297 3.36522C12.5534 2.96205 12.918 2.67397 13.3382 2.55675C13.7578 2.43968 14.2056 2.50037 14.5848 2.72839L15.4161 3.22836L15.4162 3.22843M9.63116 8.23522L15.4162 3.22843M15.4162 3.22843C15.6045 3.34161 15.771 3.49314 15.9052 3.67532C16.0395 3.85754 16.1387 4.0666 16.1964 4.29079C16.2541 4.515 16.2689 4.74919 16.2398 4.97971C16.2107 5.2101 16.1384 5.43145 16.0277 5.63115L15.4162 3.22843ZM12.7021 3.63047L12.7027 3.62931C12.8615 3.3448 13.1256 3.13136 13.4424 3.0433C13.7598 2.95507 14.0972 3.0021 14.3789 3.17121L14.3792 3.1714L15.2105 3.67135C15.2105 3.67137 15.2105 3.67139 15.2105 3.6714C15.4917 3.84046 15.6913 4.11509 15.7725 4.43013C15.8537 4.74489 15.812 5.08088 15.6544 5.36587L15.6542 5.36622L12.9556 10.2362L12.9555 10.2364C12.8771 10.3779 12.7718 10.5033 12.6449 10.6046L12.3329 10.2139L12.6449 10.6046C12.518 10.706 12.372 10.7812 12.2149 10.8249C12.0578 10.8687 11.8936 10.8798 11.732 10.8575C11.5706 10.8353 11.4158 10.7802 11.2766 10.6964L12.7021 3.63047ZM12.7021 3.63047L10.0028 8.50011C9.92423 8.64154 9.87369 8.79678 9.85333 8.95697C9.83296 9.11714 9.84307 9.27998 9.88322 9.43644C9.92338 9.59292 9.99301 9.74071 10.089 9.87115C10.185 10.0016 10.3058 10.1124 10.4451 10.1963L10.4452 10.1964L11.2762 10.6961L12.7021 3.63047Z" fill="black" stroke="#32ADE6"/>
</svg>
