<svg width="21" height="21" viewBox="0 0 21 21" fill="none" xmlns="http://www.w3.org/2000/svg">
<path fill-rule="evenodd" clip-rule="evenodd" d="M2.75757 10.5C2.75757 6.01269 6.39525 2.375 10.8826 2.375C15.3699 2.375 19.0076 6.01269 19.0076 10.5C19.0076 14.9873 15.3699 18.625 10.8826 18.625C6.39525 18.625 2.75757 14.9873 2.75757 10.5ZM12.239 7.23606C11.4983 6.58798 10.2672 6.58798 9.52656 7.23606C9.26678 7.46337 8.87193 7.43704 8.64463 7.17727C8.41733 6.9175 8.44365 6.52264 8.70342 6.29534C9.91538 5.23489 11.8501 5.23489 13.0621 6.29534C14.323 7.39862 14.323 9.22638 13.0621 10.3297C12.8482 10.5168 12.6126 10.6701 12.3643 10.7903C11.8007 11.063 11.5078 11.4351 11.5078 11.75V12.375C11.5078 12.7202 11.2279 13 10.8828 13C10.5376 13 10.2578 12.7202 10.2578 12.375V11.75C10.2578 10.6841 11.1405 9.99387 11.8197 9.66514C11.9719 9.59148 12.113 9.49916 12.239 9.38894C12.9307 8.78367 12.9307 7.84133 12.239 7.23606ZM10.8826 15.5C11.2277 15.5 11.5076 15.2202 11.5076 14.875C11.5076 14.5298 11.2277 14.25 10.8826 14.25C10.5374 14.25 10.2576 14.5298 10.2576 14.875C10.2576 15.2202 10.5374 15.5 10.8826 15.5Z" fill="#FF2AA8"/>
</svg>
